<?xml version="1.0" encoding="UTF-8"?>
<svg viewBox="0 0 640 480" xmlns="http://www.w3.org/2000/svg">
 <defs>
  <linearGradient id="a" y2="1">
   <stop stop-color="#036" offset="0"/>
   <stop stop-color="#3a59ae" offset="1"/>
  </linearGradient>
 </defs>
 <g fill="url(#a)" fill-rule="evenodd" stroke-width="0">
  <g stroke-linejoin="round">
   <path d="m220.46 258.8c0.37711-5.312-7.332-34.667 13.439-71.989 31.328-40.182 128.93-40.642 146 0.62018 17.068 41.263 15.21 71.661 11.439 76.973-11.509 8.7826-19.624 11.436-31.133 14.09 0 0-2.8344-44.166-6.7732-59.818-0.16834-0.53293 4.8747 23.853 6.7732 59.832-2.6258 35.571-5.2517 68.282-5.2517 68.282-34.768 4.57-66.521 5.4626-99.782-0.99972-3.3933-4.086-11.23-52.653-12.193-73.799-0.96274-24.415 4.3159-58.949 4.3159-58.949-1.1312 1.2258-5.2517 47.238-3.9387 58.621-8.8671 1.1676-21.007-10.004-22.892-12.864z"/>
   <path d="m344.44 119.14c0 26.704-19.998 48.377-44.639 48.377s-44.639-21.673-44.639-48.377 19.998-48.377 44.639-48.377 44.639 21.673 44.639 48.377z"/>
  </g>
  <g fill-opacity=".25">
   <path d="m299.15 74.412c-19.44-8.7721-65.23 36.843-28.943 77.78 22.032-5.8481-20.304-53.218 28.943-77.78z"/>
   <path d="m276.69 163.89c-2.16-0.58479-31.103 6.4328-41.471 25.732-8.6397 7.0177-16.848 40.352-13.392 67.253 4.3198 4.6784 12.528 12.281 14.688 10.526 12.096-34.504-28.511-70.177 40.175-103.51z"/>
   <path d="m247.74 222.37c-8.6397 35.673-0.43198 99.417 9.0718 120.47 9.5038 4.0938 22.895 5.8481 25.919 4.6785 2.592-29.825-35.855-25.732-34.991-125.15z"/>
   <path d="m301.74 165.06c36.719-13.451 27.215-66.668 43.631-52.048-1.2961 11.111-6.4799 50.294-43.631 52.048z"/>
   <path d="m370.86 272.66s19.872-5.2632 20.736-10.526c4.752-20.468-8.2078-69.007-14.256-77.195-29.375-14.035 31.967 81.288-6.4799 87.721z"/>
  </g>
  <path d="m331.55 347.52s19.007 1.7544 21.167-2.924c2.16-4.6785 12.096-45.615 6.0478-65.498-19.872-22.223 7.3438 67.838-27.215 68.422z" fill-opacity=".24"/>
 </g>
</svg>
