<?xml version="1.0" encoding="UTF-8"?>
<svg viewBox="0 0 793.7 1122.5" xmlns="http://www.w3.org/2000/svg">
 <defs>
  <filter id="e" color-interpolation-filters="sRGB">
   <feGaussianBlur stdDeviation="0.5"/>
  </filter>
  <filter id="a" x="-.21328" y="-.56078" width="1.4266" height="2.1216">
   <feGaussianBlur stdDeviation="5.771253"/>
  </filter>
  <linearGradient id="f" x1=".016646" x2=".98335" y1=".45683" y2=".45683">
   <stop stop-color="#f30000" offset="0"/>
   <stop stop-color="#fe003f" offset="1"/>
  </linearGradient>
  <radialGradient id="g" cx="438.92" cy="321.09" r="32.471" gradientTransform="matrix(1 0 0 .38033 0 198.97)" gradientUnits="userSpaceOnUse">
   <stop stop-color="#fff" offset="0"/>
   <stop stop-color="#fff" stop-opacity="0" offset="1"/>
  </radialGradient>
 </defs>
 <path d="m351.16 567.46c-41.581 0-75.278 21.066-75.278 47.079s33.697 47.102 75.278 47.102 75.278-21.089 75.278-47.102-33.697-47.079-75.278-47.079zm0 9.4023c33.265 0 60.229 16.866 60.229 37.677 0 20.81-26.964 37.699-60.229 37.699s-60.229-16.889-60.229-37.699 26.964-37.677 60.229-37.677z" fill="#faa"/>
 <path d="m396.62 563.48c-21.491-20.23-67.398-18.973-88.893 1.2519-2.2749 69.589 88.099 58.827 88.893-1.2519z" fill="#ffa"/>
 <g fill="url(#f)" filter="url(#e)">
  <path d="m351.16 529.17c11.881-2.0326 25.577-2.0874 35.355-9.7651 11.401-6.2254 23.955-9.0188 36.871-7.2612 13.674 2.6951 24.982 9.5548 34.093 19.78 6.1137 6.9848 12.113 21.274 3.0305 28.294-60.918 16.718-157.96 18.673-218.34 0-9.0827-7.019-3.0832-21.309 3.0305-28.294 9.1104-10.226 20.418-17.085 34.093-19.78 12.915-1.7576 25.469 1.0358 36.87 7.2612 9.7787 7.6777 23.474 7.7325 35.355 9.7651" fill="#faa"/>
 </g>
 <path d="m354.19 550.28c-9.2163-0.47022-18.956 1.4564-27.186-3.4769-9.2645-16.201-1.915-27.006-2.8572-34.702-19.13-41.092-20.174-78.112 30.132-79.318 42.624-1.0221 56.237 40.229 30.132 79.318-0.94214 7.6956 6.4074 18.5-2.8572 34.702l-27.364 3.4769z" fill="#ffd4aa"/>
 <path d="m458.27 545.18c1.5433 6.5172-11.714 14.385-29.612 17.573-17.897 3.1882-34.404 8.2248-35.2-6.0279-0.37158-6.6454 12.351-7.343 30.248-10.531 17.897-3.1882 33.021-7.5313 34.564-1.0141z" fill="url(#g)" filter="url(#a)" opacity=".925"/>
 <g fill="#fff">
  <path d="m312.92 555.16c5.1784-27.126-7.7426-22.742-24.904-28.703-17.161-5.9606-43.614 19.918-37.243 7.1175 2.9736-5.9742 21.187-23.6 41.659-17.939 33.607 9.2939 30.597 21.118 20.488 39.524z" filter="url(#a)" opacity=".596"/>
  <path d="m424.39 581.93c0.69919 10.359 10.856 29.334-6.1914 48.636-10.416 11.794-57.709 33.815-51.494 18.717 3.5373-8.5914 54.599-4.4837 52.883-46.586-0.85815-21.06 3.0312-31.932 4.8016-20.767z" filter="url(#a)" opacity=".464"/>
 </g>
</svg>
